<svg xmlns="http://www.w3.org/2000/svg" id="car" width="45.193" height="30" viewBox="0 0 45.193 30">
    <defs>
        <style>
            .cls-1{fill:#0c1c4f}
        </style>
    </defs>
    <path id="Path_2" d="M42.394 18.041a1.362 1.362 0 0 0-.092-.1l-1.584-1.55c1.313-.3 2.728-1.418 2.728-2.563 0-1.334-1.825-1.807-3.383-1.807-1.629 0-1.818 1.132-1.837 1.932l-4.086-4a5.725 5.725 0 0 0-3.582-1.489H14.636a5.727 5.727 0 0 0-3.581 1.489l-4.085 4c-.021-.8-.21-1.932-1.837-1.932-1.56 0-3.384.473-3.384 1.807 0 1.145 1.415 2.261 2.728 2.563l-1.584 1.55c-.036.035-.061.069-.092.1A9.053 9.053 0 0 0 0 24.21v5.874a5.4 5.4 0 0 0 1.45 3.684v2.278a2.438 2.438 0 0 0 2.45 2.417h2.966a2.436 2.436 0 0 0 2.451-2.418v-.583h26.56v.583a2.436 2.436 0 0 0 2.452 2.418h2.964a2.437 2.437 0 0 0 2.451-2.418v-2.278a5.394 5.394 0 0 0 1.45-3.684V24.21a9.042 9.042 0 0 0-2.8-6.169zm-29.838-6.313a4.054 4.054 0 0 1 2.08-.854h15.923a4.054 4.054 0 0 1 2.08.854L38 16.994H7.2zM1.838 23.321A2.56 2.56 0 0 1 4.332 20.7c1.377 0 5.877 2.679 5.877 4.125s-4.5 1.111-5.877 1.111a2.556 2.556 0 0 1-2.494-2.615zm7.48 9.566H5.55a5.328 5.328 0 0 1-1.724-.845 2.464 2.464 0 0 1-.467-.481 1.89 1.89 0 0 1-.262-.485 2.233 2.233 0 0 1 .374-1.928H8.28l3.206 3.732H9.317zm20.195 0H15.682a2.632 2.632 0 0 1-2.612-2.648h19.055a2.631 2.631 0 0 1-2.612 2.65zm.607-4.455H15.076c-1.568 0-2.841-1.961-2.841-4.379h20.726c0 2.421-1.273 4.38-2.841 4.38zm11.98 2.651a1.9 1.9 0 0 1-.263.485 2.411 2.411 0 0 1-.467.481 5.281 5.281 0 0 1-1.724.845H33.708l3.208-3.732h4.808a2.228 2.228 0 0 1 .376 1.921zm-1.236-5.145c-1.376 0-5.877.333-5.877-1.111s4.5-4.125 5.877-4.125a2.621 2.621 0 0 1 0 5.237z" class="cls-1" data-name="Path 2" transform="translate(0 -8.463)"/>
</svg>
