<svg xmlns="http://www.w3.org/2000/svg" width="45" height="45" viewBox="0 0 45 45">
    <defs>
        <style>
            .cls-1{fill:#f58938}
        </style>
    </defs>
    <g id="facebook" transform="translate(87 -3)">
        <path id="Path_36" d="M45 22.5A22.5 22.5 0 1 0 22.5 45c.132 0 .264 0 .4-.005V27.48h-4.838v-5.634H22.9V17.7c0-4.808 2.935-7.425 7.224-7.425a39.792 39.792 0 0 1 4.334.221v5.025H31.5c-2.333 0-2.785 1.109-2.785 2.736v3.588h5.575l-.727 5.634h-4.852v16.652A22.512 22.512 0 0 0 45 22.5zm0 0" class="cls-1" data-name="Path 36" transform="translate(-87 3)"/>
    </g>
</svg>
