<svg xmlns="http://www.w3.org/2000/svg" id="instagram-logo" width="45" height="45" viewBox="0 0 45 45">
    <defs>
        <style>
            .cls-1{fill:#f58938}
        </style>
    </defs>
    <path id="Path_39" d="M32.581 0H12.418A12.432 12.432 0 0 0 0 12.418v20.164A12.432 12.432 0 0 0 12.418 45h20.163A12.433 12.433 0 0 0 45 32.582V12.418A12.432 12.432 0 0 0 32.581 0zm8.426 32.582a8.435 8.435 0 0 1-8.426 8.426H12.418a8.435 8.435 0 0 1-8.425-8.426V12.418a8.435 8.435 0 0 1 8.425-8.426h20.163a8.436 8.436 0 0 1 8.426 8.426v20.164z" class="cls-1" data-name="Path 39"/>
    <path id="Path_40" d="M52.371 40.97a11.4 11.4 0 1 0 11.4 11.4 11.416 11.416 0 0 0-11.4-11.4zm0 18.879a7.476 7.476 0 1 1 7.477-7.476 7.485 7.485 0 0 1-7.477 7.476z" class="cls-1" data-name="Path 40" transform="translate(-29.871 -29.872)"/>
    <path id="Path_41" d="M121.9 28.251a2.978 2.978 0 1 0 2.107.872 2.991 2.991 0 0 0-2.107-.872z" class="cls-1" data-name="Path 41" transform="translate(-87.351 -20.751)"/>
</svg>
