<svg xmlns="http://www.w3.org/2000/svg" id="pc" width="34.684" height="32.276" viewBox="0 0 34.684 32.276">
    <defs>
        <style>
            .cls-1{fill:#0c1c4f}
        </style>
    </defs>
    <path id="Path_7" d="M2.427 36.506V19.141a.262.262 0 0 1 .261-.261h25.591a.261.261 0 0 1 .261.261v13.2h2.427v-13.2a2.691 2.691 0 0 0-2.688-2.688H2.688A2.691 2.691 0 0 0 0 19.141v17.365a2.691 2.691 0 0 0 2.688 2.688h8.578v3.484H9.914a1.213 1.213 0 1 0 0 2.427h11.139a1.213 1.213 0 1 0 0-2.427H19.7v-3.484h4.115v-2.427H2.688a.262.262 0 0 1-.261-.261z" class="cls-1" data-name="Path 7" transform="translate(0 -16.453)"/>
    <path id="Path_8" d="M354.851 254.888h-6.309a1.584 1.584 0 0 0-1.582 1.583v11.947a1.584 1.584 0 0 0 1.582 1.582h6.309a1.584 1.584 0 0 0 1.582-1.583v-11.946a1.584 1.584 0 0 0-1.582-1.583zm-6.031 1.86h5.754v10.373h-5.754zm2.876 12.411a.668.668 0 0 1-.316-.087.619.619 0 1 1 .316.087z" class="cls-1" data-name="Path 8" transform="translate(-321.749 -237.725)"/>
</svg>
