<svg xmlns="http://www.w3.org/2000/svg" width="58.588" height="58.587" viewBox="0 0 58.588 58.587">
    <defs>
        <style>
            .cls-1{fill:#f58938}
        </style>
    </defs>
    <g id="Page-1" transform="translate(.002 .001)">
        <g id="_001---Thinking" data-name="001---Thinking" transform="translate(-.002 -.001)">
            <path id="Shape" d="M2.436 37.509a7.158 7.158 0 0 0 1.014.591c.423.216 1.13.577 1.18.831a1.686 1.686 0 0 1-.114.988c-.145.312-.3.581-.43.813-.358.631-.956 1.688-.054 2.426.211.2.575.477.908.732a2.461 2.461 0 0 0-.318 1.41 1.409 1.409 0 0 0 .573.957c.22.156.455.293.683.425.574.327.8.479.879.781a2.7 2.7 0 0 1-.107 1.182 9.006 9.006 0 0 0-.149.766 5.739 5.739 0 0 0 .33 2.63A3.659 3.659 0 0 0 10.29 54.7a3.968 3.968 0 0 0 .8-.084 74.025 74.025 0 0 0 8.232-2.464c2.2 1.291 3.589 5.216 3.952 6.689a.977.977 0 0 0 .948.74l24.508-.068a.976.976 0 0 0 .93-1.269 7.542 7.542 0 0 0-.989-1.855 9.058 9.058 0 0 1-.633-1.055 18.588 18.588 0 0 1-1.1-2.78 32.91 32.91 0 0 1-1.155-5.777 16.531 16.531 0 0 1 1.283-8.574 21.827 21.827 0 0 1 2.652-4.192c.586-.791 1.194-1.61 1.74-2.47a15.1 15.1 0 0 0 2.011-4.755.976.976 0 0 0-1.9-.441A13.182 13.182 0 0 1 49.8 30.5c-.507.8-1.093 1.591-1.66 2.354a23.6 23.6 0 0 0-2.874 4.575 18.472 18.472 0 0 0-1.431 9.588 34.659 34.659 0 0 0 1.231 6.125 20.353 20.353 0 0 0 1.217 3.058 10.67 10.67 0 0 0 .757 1.269l.065.1-22.147.066A15.571 15.571 0 0 0 21.52 51.4l.879-.306c.656-.229 1.151-.4 1.407-.488 4.181-1.333 6.273-3.237 6.215-5.663a.959.959 0 0 0-1-.948.976.976 0 0 0-.953 1c.023 1-.8 2.462-4.859 3.754-.266.085-.781.264-1.456.5-.725.253-1.645.575-2.661.92h-.007A76.051 76.051 0 0 1 10.7 52.7a1.739 1.739 0 0 1-2.011-1.3 3.906 3.906 0 0 1-.241-1.73c.028-.2.074-.4.119-.6a4.261 4.261 0 0 0 .1-2.1 3.236 3.236 0 0 0-1.8-1.993l-.21-.12a3.593 3.593 0 0 1 .377-.605.976.976 0 0 0-.188-1.39 50.469 50.469 0 0 1-1.191-.912l.147-.263c.153-.269.329-.586.5-.944a3.645 3.645 0 0 0 .26-2.184c-.233-1.191-1.375-1.775-2.208-2.2a5.642 5.642 0 0 1-.8-.468 4.162 4.162 0 0 1-.586-.475c0-.148.159-.507.9-1.412a39.4 39.4 0 0 0 4.467-7.26 2.9 2.9 0 0 0 .377-1.32 3.418 3.418 0 0 0-1.432-2.441c-.4-.363-.769-.7-.811-.993a1.919 1.919 0 0 1 .158-.694c.159-.418.344-.828.527-1.239a14.332 14.332 0 0 0 .976-2.647A26.189 26.189 0 0 1 9 14.182a16.741 16.741 0 0 1 3.5-5.723c1.867-1.977 4.806-3.375 8.751-4.159a63.449 63.449 0 0 1 9.161-1.32 21.373 21.373 0 0 1 3.11.066A.979.979 0 1 0 33.7 1.1a23.752 23.752 0 0 0-3.394-.067 65.175 65.175 0 0 0-9.444 1.355c-4.4.879-7.6 2.423-9.786 4.731a18.676 18.676 0 0 0-3.917 6.389 28.546 28.546 0 0 0-.959 3.526 12.646 12.646 0 0 1-.838 2.226c-.2.444-.4.889-.572 1.35a3.412 3.412 0 0 0-.266 1.639 3.754 3.754 0 0 0 1.429 2.174c.478.438.794.747.8 1.016a1.654 1.654 0 0 1-.166.424 37.689 37.689 0 0 1-4.273 6.943c-.707.862-1.449 1.867-1.294 2.873a2.992 2.992 0 0 0 1.416 1.83z" class="cls-1" transform="translate(-.998 -.999)"/>
            <path id="Shape-2" d="M12.874 15.663a12.862 12.862 0 0 1 2.679-4.394c1.3-1.378 3.552-2.392 6.69-3.016a.977.977 0 1 0-.38-1.916c-3.543.7-6.144 1.912-7.729 3.587a14.8 14.8 0 0 0-3.093 5.066 24.846 24.846 0 0 0-.8 2.979l1.907.423a23.348 23.348 0 0 1 .726-2.729z" class="cls-1" data-name="Shape" transform="translate(-1.216 -1.124)"/>
            <path id="Shape-3" d="M33.556 6.468l-.586 2.921a11.631 11.631 0 0 0-1.644.683l-2.479-1.66a1.953 1.953 0 0 0-2.453.255l-1.621 1.62a1.953 1.953 0 0 0-.258 2.475l1.652 2.467a11.626 11.626 0 0 0-.683 1.644l-2.918.586A1.953 1.953 0 0 0 21 19.376v2.3a1.953 1.953 0 0 0 1.562 1.924l2.921.586a11.626 11.626 0 0 0 .683 1.644l-1.659 2.47a1.953 1.953 0 0 0 .255 2.453l1.621 1.621a1.959 1.959 0 0 0 2.474.257l2.467-1.652a11.626 11.626 0 0 0 1.644.683l.586 2.918a1.953 1.953 0 0 0 1.916 1.567h2.3a1.953 1.953 0 0 0 1.915-1.562l.586-2.921a11.627 11.627 0 0 0 1.644-.683l2.479 1.66a1.953 1.953 0 0 0 2.453-.255l1.62-1.62a1.953 1.953 0 0 0 .258-2.475l-1.652-2.467a11.626 11.626 0 0 0 .683-1.644l2.918-.586a1.945 1.945 0 0 0 1.345-1.017l1.471.986a1.782 1.782 0 0 0 .948.274 1.758 1.758 0 0 0 1.247-.518l1.3-1.3a1.773 1.773 0 0 0 .228-2.22l-1.26-1.885a9.185 9.185 0 0 0 .473-1.135l2.21-.44a1.758 1.758 0 0 0 1.419-1.731v-1.832a1.758 1.758 0 0 0-1.411-1.729l-2.217-.447a9.043 9.043 0 0 0-.471-1.135l1.279-1.907a1.764 1.764 0 0 0-.244-2.2l-1.3-1.3a1.772 1.772 0 0 0-2.22-.228L51.587 5.1a9.18 9.18 0 0 0-1.135-.473l-.441-2.21A1.758 1.758 0 0 0 48.281 1h-1.835a1.758 1.758 0 0 0-1.729 1.411l-.443 2.219a9.038 9.038 0 0 0-1.135.474l-1.907-1.279a1.766 1.766 0 0 0-2.2.244l-.879.879a2 2 0 0 0-.384-.042h-2.3a1.953 1.953 0 0 0-1.913 1.562zM48.483 10.3l-.456-.456a3.885 3.885 0 0 1 1.214 7.33l-1.482-.293a11.627 11.627 0 0 0-.683-1.644l1.66-2.479a1.953 1.953 0 0 0-.252-2.455zm-8.172-4.746l2.232 1.5a.976.976 0 0 0 1.043.028 7.142 7.142 0 0 1 1.787-.747.976.976 0 0 0 .7-.752l.524-2.63h1.527l.524 2.636a.976.976 0 0 0 .7.752 7.142 7.142 0 0 1 1.787.747.976.976 0 0 0 1.043-.034l2.232-1.5L55.5 6.64 54 8.873a.976.976 0 0 0-.028 1.043 7.141 7.141 0 0 1 .747 1.787.976.976 0 0 0 .752.7l2.636.524v1.527l-2.631.524a.976.976 0 0 0-.752.7 7.141 7.141 0 0 1-.747 1.787.976.976 0 0 0 .028 1.043l1.5 2.232-1.083 1.09-2.176-1.456v-1a1.959 1.959 0 0 0-.684-1.487A5.845 5.845 0 0 0 47.49 7.835a5.651 5.651 0 0 0-1.737.285 1.98 1.98 0 0 0-1.367.3l-2.465 1.652a11.631 11.631 0 0 0-1.644-.683l-.586-2.918a1.784 1.784 0 0 0-.067-.23zm-5.543 4.8l.7-3.493h2.3l.7 3.5a.977.977 0 0 0 .7.75 9.619 9.619 0 0 1 2.305.957.976.976 0 0 0 1.033-.033l2.955-1.976 1.636 1.628-1.982 2.958a.976.976 0 0 0-.033 1.033 9.619 9.619 0 0 1 .957 2.305.977.977 0 0 0 .75.7l3.493.7v2.305l-3.5.7a.977.977 0 0 0-.75.7 9.619 9.619 0 0 1-.957 2.305.976.976 0 0 0 .033 1.033l1.992 2.952-1.628 1.636-2.958-1.982A.976.976 0 0 0 41.481 29a9.619 9.619 0 0 1-2.305.957.977.977 0 0 0-.7.75l-.7 3.493h-2.3l-.7-3.5a.977.977 0 0 0-.7-.75 9.619 9.619 0 0 1-2.315-.95.976.976 0 0 0-1.033.033l-2.955 1.976-1.636-1.628 1.982-2.958a.976.976 0 0 0 .033-1.033 9.619 9.619 0 0 1-.957-2.305.977.977 0 0 0-.75-.7l-3.493-.7v-2.3l3.5-.7a.977.977 0 0 0 .75-.7 9.619 9.619 0 0 1 .957-2.305.976.976 0 0 0-.033-1.033l-1.976-2.955 1.628-1.636 2.958 1.982a.976.976 0 0 0 1.033.033 9.619 9.619 0 0 1 2.305-.957.977.977 0 0 0 .694-.763z" class="cls-1" data-name="Shape" transform="translate(-1.469 -.999)"/>
            <path id="Shape-4" d="M36.835 27.67A6.835 6.835 0 1 0 30 20.835a6.835 6.835 0 0 0 6.835 6.835zm0-11.717a4.882 4.882 0 1 1-4.882 4.882 4.882 4.882 0 0 1 4.882-4.882z" class="cls-1" data-name="Shape" transform="translate(-1.681 -1.305)"/>
            <ellipse id="Oval" cx=".5" cy="1" class="cls-1" rx=".5" ry="1" transform="translate(34.295 18.301)"/>
            <ellipse id="Oval-2" cx=".5" cy="1" class="cls-1" data-name="Oval" rx=".5" ry="1" transform="translate(8.295 19.301)"/>
        </g>
    </g>
</svg>
